<svg width="20" height="19" viewBox="0 0 20 19" fill="none" xmlns="http://www.w3.org/2000/svg">
<g id="Group">
<path id="Vector" d="M14.697 2.50003C13.475 2.44003 12.018 3.01003 10.807 4.66003L10.002 5.75003L9.196 4.66003C7.984 3.01003 6.526 2.44003 5.304 2.50003C4.061 2.57003 2.955 3.28003 2.394 4.41003C1.842 5.53003 1.761 7.19003 2.873 9.23003C3.947 11.2 6.13 13.5 10.002 15.84C13.872 13.5 16.054 11.2 17.128 9.23003C18.239 7.19003 18.158 5.53003 17.605 4.41003C17.044 3.28003 15.939 2.57003 14.697 2.50003ZM18.884 10.19C17.533 12.67 14.883 15.31 10.505 17.86L10.002 18.16L9.498 17.86C5.119 15.31 2.469 12.67 1.116 10.19C-0.243996 7.69003 -0.293996 5.33003 0.602004 3.52003C1.489 1.73003 3.249 0.610027 5.203 0.510027C6.854 0.420027 8.571 1.07003 10.001 2.52003C11.43 1.07003 13.147 0.420027 14.797 0.510027C16.751 0.610027 18.511 1.73003 19.398 3.52003C20.294 5.33003 20.244 7.69003 18.884 10.19Z" fill="#536471"/>
</g>
</svg>
