<svg width="24" height="18" viewBox="0 0 24 18" fill="none" xmlns="http://www.w3.org/2000/svg">
<g id="Group">
<path id="Vector" d="M4.49999 0.880005L8.93199 5.02001L7.56799 6.48L5.49999 4.55V13C5.49999 14.1 6.39599 15 7.49999 15H13V17H7.49999C5.29099 17 3.49999 15.21 3.49999 13V4.55L1.43199 6.48L0.0679932 5.02001L4.49999 0.880005ZM16.5 3H11V1H16.5C18.709 1 20.5 2.79 20.5 5V13.45L22.568 11.52L23.932 12.98L19.5 17.12L15.068 12.98L16.432 11.52L18.5 13.45V5C18.5 3.9 17.604 3 16.5 3Z" fill="#536471"/>
</g>
</svg>
