<svg width="22" height="20" viewBox="0 0 22 20" fill="none" xmlns="http://www.w3.org/2000/svg">
<g id="Group">
<path id="Vector" d="M0.750977 8C0.750977 3.58 4.33498 0 8.75598 0H13.122C17.612 0 21.251 3.64 21.251 8.13C21.251 11.09 19.644 13.81 17.055 15.24L9.00098 19.7V16.01H8.93398C4.44398 16.11 0.750977 12.5 0.750977 8ZM8.75598 2C5.43898 2 2.75098 4.69 2.75098 8C2.75098 11.37 5.52098 14.08 8.88898 14.01L9.23998 14H11.001V16.3L16.088 13.49C18.039 12.41 19.251 10.36 19.251 8.13C19.251 4.74 16.507 2 13.122 2H8.75598Z" fill="#536471"/>
</g>
</svg>
